# xmcd CD database file
#
# Track frame offsets:
#	150
#	18283
#	31333
#	39236
#	56048
#	64545
#	80933
#	97214
#	102383
#	117816
#	131596
#	145993
#	163227
#
# Disc length: 2368 seconds
#
# Revision: 0
# Processed by: cddbd v1.5.1PL2 Copyright (c) Steve Scherf et al.
# Submitted via: CDex 1.51
#
DISCID=b5093e0d
DTITLE=Hawaii Samurai - The Shape of Surf to Come
DYEAR=2005
DGENRE=Surf Rock
TTITLE0=Creeky Tiki From the Deepest Jungle of Gargula
TTITLE1=Blastin' Days In Honolulu
TTITLE2=Surf Militia
TTITLE3=Dead in the Saddle
TTITLE4=Le Masque du Demon
TTITLE5=Cheerleaders From Outerspace Must Die
TTITLE6=Hasta La Vista, Baby
TTITLE7=Buffy the Vampire Slayer
TTITLE8=Danziacum Memories
TTITLE9=Teenage Mutant Surfer Ninja
TTITLE10=Macumba Love
TTITLE11=Walk Together, Surf Together
TTITLE12=Adam West vs the Vampires
EXTD=YEAR: 2005
EXTT0=
EXTT1=
EXTT2=
EXTT3=
EXTT4=
EXTT5=
EXTT6=
EXTT7=
EXTT8=
EXTT9=
EXTT10=
EXTT11=
EXTT12=
PLAYORDER=
